<svg width="981" height="248" viewBox="0 0 981 248" fill="none" xmlns="http://www.w3.org/2000/svg">
<path d="M427.291 32.8638C449.043 52.4563 464.171 81.3178 466.163 110.79C466.209 112.182 466.209 112.182 466.256 113.603C466.282 114.243 466.308 114.884 466.334 115.544C467.548 149.453 458.328 180.049 435.319 205.29C411.221 231.067 381.242 246.206 345.924 247.853C309.052 248.432 275.576 234.524 248.534 209.864C244.455 205.814 244.455 205.814 243.256 203.603C243.301 198.276 245.872 194.771 248.881 190.603C256.223 179.997 261.595 169.021 265.256 156.603C269.525 158.131 271.093 160.954 273.506 164.665C285.757 182.865 302.104 194.457 323.638 199.198C344.03 203.09 367.138 198.889 384.422 187.285C401.691 175.342 413.734 159.847 418.01 138.911C418.54 135.476 418.948 132.064 419.256 128.603C419.329 127.85 419.401 127.097 419.475 126.321C420.229 109.992 414.365 92.9068 405.256 79.6026C404.431 78.3883 404.431 78.3883 403.588 77.1495C391.273 60.4485 372.469 51.2319 352.444 47.4151C336.028 44.9474 320.159 47.3182 305.256 54.6026C304.357 55.0216 303.457 55.4405 302.53 55.8721C284.39 64.9422 272.194 80.1201 265.002 98.8721C262.473 106.74 261.653 114.444 260.965 122.643C258.639 150.298 249.419 175.299 231.256 196.603C230.478 197.544 229.699 198.485 228.897 199.454C207.875 223.842 175.887 238.608 144.256 242.603C139.773 242.933 135.292 243.082 130.799 243.206C128.902 243.264 128.902 243.264 126.967 243.323C113.88 243.695 100.797 243.73 87.7056 243.7C85.2135 243.698 82.7215 243.697 80.2295 243.696C73.7805 243.692 67.3315 243.682 60.8826 243.671C54.2578 243.661 47.6331 243.656 41.0083 243.651C28.091 243.641 15.1737 243.624 2.25634 243.603C0.0921948 238.316 -0.0235344 233.691 0.00908945 228.08C0.00667504 227.128 0.00428332 226.177 0.00179574 225.196C-0.00383433 222.011 0.00480917 218.826 0.0134229 215.64C0.0123499 213.356 0.0104262 211.071 0.00768564 208.786C0.00283869 202.584 0.0104766 196.382 0.0206251 190.18C0.0294035 183.697 0.0276313 177.213 0.0272474 170.73C0.0281838 159.848 0.0368282 148.966 0.0505323 138.084C0.0646354 126.879 0.0717024 115.674 0.0710401 104.47C0.0710002 103.779 0.0709592 103.088 0.0709181 102.376C0.0708777 101.686 0.0708376 100.997 0.070796 100.286C0.0701419 88.1809 0.0752764 76.0755 0.0835829 63.9701C0.0871223 58.8102 0.0889432 53.6503 0.0894727 48.4904C0.0904735 42.424 0.0965636 36.3575 0.106654 30.2911C0.109587 28.0581 0.110801 25.8251 0.110225 23.5922C0.109738 20.5581 0.115333 17.5241 0.122615 14.4901C0.121066 13.5944 0.119541 12.6987 0.117946 11.7759C0.142172 5.71679 0.142164 5.71679 1.25634 4.60261C8.60201 3.51735 16.0277 3.45781 23.4373 3.47322C24.4959 3.47147 25.5546 3.46971 26.6453 3.46791C30.1159 3.46354 33.5865 3.46641 37.0571 3.4698C39.4998 3.46913 41.9424 3.46815 44.3851 3.4669C49.4998 3.46543 54.6145 3.46756 59.7292 3.47224C66.223 3.47791 72.7167 3.47468 79.2104 3.46867C84.2579 3.46502 89.3055 3.46622 94.353 3.4688C96.7435 3.46946 99.134 3.46868 101.525 3.46632C113.162 3.45736 124.781 3.53292 136.409 4.03669C137.734 4.09242 137.734 4.09242 139.085 4.14927C169.613 5.64341 200.028 20.9233 221.256 42.6495C222.694 44.4151 222.694 44.4151 224.256 47.6026C223.219 52.164 221.028 56.019 218.778 60.0723C211 74.0949 207.034 87.8855 204.256 103.603C202.936 103.603 201.616 103.603 200.256 103.603C200.049 102.803 199.841 102.004 199.627 101.181C194.698 83.6071 184.676 69.8086 168.889 60.5401C149.852 50.0397 127.639 49.4378 106.44 49.4698C104.85 49.4691 103.26 49.4682 101.67 49.4669C98.3648 49.4654 95.0595 49.4675 91.7541 49.4722C87.5174 49.478 83.2806 49.4746 79.0439 49.4687C75.7728 49.4651 72.5019 49.4662 69.2308 49.4688C67.6675 49.4695 66.1042 49.4686 64.5409 49.4663C62.3658 49.4638 60.1909 49.4676 58.0159 49.4732C56.7796 49.474 55.5434 49.4748 54.2698 49.4756C51.2067 49.4658 51.2066 49.4658 48.2563 50.6026C47.9263 99.1126 47.5963 147.623 47.2563 197.603C66.2829 197.664 66.2829 197.664 85.6938 197.728C91.6482 197.755 91.6482 197.755 97.7229 197.783C101.356 197.789 101.356 197.789 104.99 197.794C106.578 197.797 108.167 197.803 109.755 197.814C140.035 198 168.49 193.243 191.256 171.603C206.752 155.155 211.504 137.035 213.905 114.899C217.71 80.5195 230.688 51.0061 257.999 28.3253C308.409 -10.7863 379.24 -9.01099 427.291 32.8638Z" fill="#1F2022"/>
<path d="M934.999 27.8214C937.485 30.0207 939.876 32.2896 942.256 34.6026C943.065 35.3374 943.873 36.0721 944.706 36.8292C965.521 56.3705 978.968 86.6268 980.379 115.083C981.494 150.984 970.021 182.039 945.542 208.575C922.101 233.311 890.076 246.922 856.116 247.952C821.936 248.327 788.348 235.429 763.475 211.919C761.291 209.584 760.301 207.987 759.932 204.79C760.325 200.933 761.524 199.035 763.631 195.79C769.545 186.216 773.242 175.605 777.238 165.129C778.143 162.884 779.137 160.747 780.256 158.603C781.246 158.603 782.236 158.603 783.256 158.603C784.799 160.911 784.799 160.911 786.444 164.04C796.197 181.419 812.362 192.078 831.256 197.603C854.214 203.362 877.1 199.531 897.256 187.603C914.501 177.031 925.042 161.748 930.565 142.505C935.494 121.815 931.908 101.807 921.256 83.6026C919.145 80.3624 916.844 77.4741 914.256 74.6026C913.455 73.708 912.653 72.8134 911.827 71.8917C897.084 56.2944 876.808 46.9672 855.317 46.2008C831.857 45.8575 811.749 55.3554 794.712 71.1588C779.039 86.7055 775.933 107.69 773.256 128.54C768.789 163.265 757.785 193.937 733.256 219.603C732.249 220.722 732.249 220.722 731.221 221.864C720.765 233.064 706.885 242.304 691.385 243.622C689.256 243.603 689.256 243.603 686.256 242.603C685.099 240.287 685.127 238.931 685.124 236.357C685.122 235.519 685.121 234.682 685.12 233.819C685.124 232.943 685.127 232.068 685.131 231.165C685.128 230.293 685.124 229.421 685.12 228.523C685.121 227.684 685.122 226.845 685.124 225.982C685.125 225.214 685.126 224.446 685.127 223.656C685.256 221.603 685.256 221.603 686.256 218.603C688.082 217.143 689.967 215.757 691.881 214.415C712.989 199.026 720.126 173.189 724.096 148.521C725.636 138.319 726.535 128.146 727.194 117.853C729.394 84.5988 741.826 54.6782 766.638 32.0094C771.527 27.7596 776.821 24.1112 782.256 20.6026C783.356 19.8923 784.456 19.1821 785.588 18.4503C831.005 -9.09598 893.624 -5.65588 934.999 27.8214Z" fill="#1F2022"/>
<path d="M477.979 3.43463C478.802 3.4313 479.625 3.42797 480.473 3.42455C482.205 3.4195 483.938 3.41714 485.67 3.4173C488.314 3.4151 490.958 3.3969 493.602 3.37799C495.29 3.37506 496.978 3.37307 498.667 3.37213C499.453 3.36495 500.24 3.35776 501.05 3.35036C505.206 3.36761 508.591 3.55265 512.256 5.6026C513.92 7.92634 515.275 10.1082 516.631 12.6026C517.504 14.1457 518.376 15.6886 519.249 17.2315C519.724 18.0837 520.199 18.936 520.689 19.814C523.019 23.96 525.417 28.0665 527.806 32.1788C533.104 41.3083 538.328 50.473 543.422 59.7181C547.616 67.3052 551.965 74.8022 556.307 82.3057C560.647 89.8067 564.961 97.3211 569.255 104.848C574.99 114.9 580.737 124.946 586.506 134.978C587.126 136.059 587.746 137.141 588.385 138.255C591.202 143.146 594.037 147.965 597.256 152.603C605.387 138.921 613.279 125.106 621.16 111.28C624.19 105.964 627.227 100.653 630.263 95.3407C631.259 93.5979 632.255 91.8549 633.251 90.1119C636.267 84.8316 639.284 79.5521 642.308 74.2757C644 71.3226 645.691 68.3689 647.381 65.4151C647.713 64.8354 648.045 64.2557 648.387 63.6585C652.55 56.3842 656.671 49.0877 660.747 41.764C665.7 32.8648 670.699 23.9961 675.881 15.2276C676.609 13.9785 676.609 13.9785 677.351 12.7042C677.807 11.941 678.263 11.1779 678.733 10.3917C679.126 9.7286 679.518 9.06554 679.923 8.38239C681.977 5.64137 683.999 3.8143 687.439 3.23511C688.227 3.23875 689.014 3.2424 689.825 3.24615C690.723 3.24315 691.62 3.24015 692.545 3.23706C693.986 3.25558 693.986 3.25558 695.456 3.27448C696.446 3.27635 697.437 3.27822 698.458 3.28015C700.548 3.28687 702.639 3.30077 704.729 3.32135C707.942 3.35258 711.155 3.36233 714.368 3.36823C716.397 3.37739 718.426 3.38777 720.456 3.39948C721.422 3.40372 722.389 3.40797 723.385 3.41235C724.717 3.42676 724.717 3.42676 726.075 3.44147C726.861 3.4483 727.646 3.45512 728.455 3.46216C730.256 3.6026 730.256 3.6026 731.256 4.6026C731.386 6.19933 731.448 7.80172 731.481 9.40338C731.503 10.4296 731.526 11.4557 731.549 12.513C731.621 17.2804 731.678 22.0477 731.716 26.8155C731.743 29.3118 731.783 31.808 731.839 34.3038C732.185 49.9009 731.277 61.6517 724.256 75.6026C723.121 78.8351 722.245 82.0861 721.444 85.4151C721.159 86.5085 721.159 86.5085 720.868 87.6241C717.209 102.096 716.284 116.845 715.157 131.678C713.118 158.245 708.171 182.871 690.256 203.603C688.069 204.478 688.069 204.478 686.256 204.603C684.665 203.012 685.115 201.361 685.098 199.154C685.083 197.714 685.083 197.714 685.068 196.244C685.063 195.181 685.057 194.119 685.051 193.024C685.041 191.912 685.031 190.8 685.021 189.654C684.989 185.959 684.965 182.263 684.94 178.567C684.919 176.013 684.898 173.458 684.877 170.904C684.827 164.855 684.782 158.806 684.739 152.757C684.69 145.872 684.635 138.987 684.579 132.102C684.465 117.936 684.359 103.769 684.256 89.6026C683.912 90.2349 683.569 90.8672 683.214 91.5187C681.64 94.4112 680.065 97.3032 678.49 100.195C677.949 101.19 677.408 102.184 676.851 103.209C673.142 110.017 669.341 116.75 665.381 123.415C660.484 131.733 655.702 140.106 651.006 148.54C646.809 156.076 642.567 163.574 638.16 170.99C635.59 175.319 633.061 179.67 630.553 184.036C630.226 184.606 629.898 185.176 629.561 185.764C627.936 188.593 626.314 191.424 624.696 194.257C613.324 214.069 613.324 214.069 610.256 215.603C605.992 215.927 601.719 215.927 597.444 215.978C596.255 216.015 595.066 216.052 593.84 216.091C585.165 216.179 585.165 216.179 581.331 213.747C578.345 209.221 575.554 204.632 572.881 199.915C572.274 198.859 571.667 197.802 571.041 196.713C569.756 194.476 568.474 192.236 567.194 189.995C564.704 185.637 562.192 181.292 559.679 176.947C557.798 173.692 555.921 170.435 554.045 167.177C551.525 162.801 548.999 158.429 546.467 154.06C539.731 142.427 533.058 130.763 526.526 119.014C522.739 112.212 518.89 105.447 515.025 98.6898C514.469 97.718 513.913 96.7462 513.341 95.7449C511.98 93.364 510.618 90.9832 509.256 88.6026C509.252 89.3893 509.248 90.176 509.244 90.9865C509.14 110.106 509.032 129.226 508.917 148.345C508.862 157.591 508.808 166.837 508.759 176.083C508.716 184.14 508.67 192.196 508.619 200.252C508.593 204.52 508.568 208.788 508.547 213.056C508.528 217.07 508.504 221.083 508.476 225.097C508.466 226.573 508.459 228.049 508.453 229.526C508.445 231.535 508.43 233.544 508.415 235.554C508.408 236.68 508.402 237.806 508.395 238.967C508.256 241.603 508.256 241.603 507.256 243.603C501.633 243.627 496.01 243.645 490.386 243.658C488.473 243.663 486.561 243.669 484.648 243.678C481.898 243.69 479.147 243.696 476.397 243.7C475.543 243.705 474.688 243.711 473.808 243.716C472.607 243.716 472.607 243.716 471.382 243.716C470.681 243.718 469.979 243.721 469.256 243.723C467.116 243.594 465.286 243.298 463.256 242.603C462.031 240.152 462.11 238.517 462.079 235.777C462.067 234.771 462.054 233.766 462.04 232.73C462.029 231.091 462.029 231.091 462.018 229.419C462.01 228.294 462.002 227.168 461.994 226.009C461.98 223.619 461.969 221.229 461.961 218.839C461.944 215.211 461.9 211.584 461.856 207.956C461.846 205.631 461.837 203.306 461.831 200.982C461.813 199.907 461.796 198.833 461.778 197.726C461.799 190.285 463.318 184.416 466.256 177.603C466.7 176.495 467.143 175.388 467.6 174.247C467.982 173.313 468.363 172.378 468.756 171.415C480.613 140.625 480.064 107.681 469.17 76.7979C468.875 75.9517 468.58 75.1055 468.275 74.2337C467.296 71.5691 467.296 71.5691 465.929 69.0164C460.338 57.3155 461.68 44.5827 461.881 31.9151C461.898 29.4861 461.912 27.057 461.924 24.628C461.958 20.2174 461.993 15.807 462.063 11.3968C462.076 10.5167 462.089 9.63654 462.102 8.72975C462.256 6.6026 462.256 6.6026 463.256 4.6026C468.127 3.41373 472.997 3.4417 477.979 3.43463Z" fill="#1F2022"/>
</svg>
